<mxfile host="app.diagrams.net" modified="2022-04-19T03:28:08.601Z" agent="5.0 (Windows NT 10.0; Win64; x64) AppleWebKit/537.36 (KHTML, like Gecko) Chrome/99.0.4844.82 Safari/537.36" etag="z4TuZJXzTICfa1DfMIhd" version="17.4.5" type="github">
  <diagram id="tiiCQIkP0fynBeZoNhBV" name="Page-1">
    <mxGraphModel dx="1422" dy="762" grid="1" gridSize="10" guides="1" tooltips="1" connect="1" arrows="1" fold="1" page="1" pageScale="1" pageWidth="1600" pageHeight="900" background="#CCFFFF" math="0" shadow="0">
      <root>
        <mxCell id="0" />
        <mxCell id="1" parent="0" />
        <mxCell id="FFQyTOtspE-0GEqabYLA-12" value="" style="rounded=1;whiteSpace=wrap;html=1;labelBorderColor=none;fontSize=30;labelBackgroundColor=#66B2FF;fillColor=#CCE5FF;" vertex="1" parent="1">
          <mxGeometry x="430" y="217" width="350" height="283" as="geometry" />
        </mxCell>
        <mxCell id="FFQyTOtspE-0GEqabYLA-1" value="赋强" style="aspect=fixed;html=1;points=[];align=center;image;fontSize=12;image=img/lib/azure2/databases/Azure_Database_MySQL_Server.svg;labelBackgroundColor=none;" vertex="1" parent="1">
          <mxGeometry x="170" y="236" width="55.5" height="74" as="geometry" />
        </mxCell>
        <mxCell id="FFQyTOtspE-0GEqabYLA-2" value="公证" style="aspect=fixed;html=1;points=[];align=center;image;fontSize=12;image=img/lib/azure2/databases/Azure_Database_MySQL_Server.svg;labelBackgroundColor=none;" vertex="1" parent="1">
          <mxGeometry x="170" y="336" width="55.5" height="74" as="geometry" />
        </mxCell>
        <mxCell id="FFQyTOtspE-0GEqabYLA-3" value="预存" style="aspect=fixed;html=1;points=[];align=center;image;fontSize=12;image=img/lib/azure2/databases/Azure_Database_MySQL_Server.svg;labelBackgroundColor=none;" vertex="1" parent="1">
          <mxGeometry x="170" y="436" width="54" height="72" as="geometry" />
        </mxCell>
        <mxCell id="FFQyTOtspE-0GEqabYLA-11" value="Elasticsearch" style="shape=image;verticalLabelPosition=middle;labelBackgroundColor=default;verticalAlign=middle;aspect=fixed;imageAspect=0;image=https://static-www.elastic.co/v3/assets/bltefdd0b53724fa2ce/blt36f2da8d650732a0/5d0823c3d8ff351753cbc99f/logo-elasticsearch-32-color.svg;align=left;horizontal=1;labelPosition=right;fontStyle=1;labelBorderColor=none;fontSize=30;" vertex="1" parent="1">
          <mxGeometry x="920" y="308" width="84" height="84" as="geometry" />
        </mxCell>
        <mxCell id="FFQyTOtspE-0GEqabYLA-13" value="binlog" style="shape=singleArrow;labelBackgroundColor=none;labelBorderColor=none;fontSize=20;fillColor=#d5e8d4;dashed=1;strokeColor=#82b366;html=1;whiteSpace=wrap;spacingTop=-42;" vertex="1" parent="1">
          <mxGeometry x="270" y="268" width="210" height="40" as="geometry" />
        </mxCell>
        <mxCell id="FFQyTOtspE-0GEqabYLA-16" value="" style="shape=singleArrow;whiteSpace=wrap;html=1;labelBackgroundColor=#66B2FF;labelBorderColor=none;fontSize=30;fillColor=#f8cecc;strokeColor=#b85450;" vertex="1" parent="1">
          <mxGeometry x="760" y="330" width="150" height="40" as="geometry" />
        </mxCell>
        <mxCell id="FFQyTOtspE-0GEqabYLA-17" value="&lt;h1 style=&quot;font-size: 28px;&quot;&gt;Flink CDC&lt;/h1&gt;" style="text;html=1;strokeColor=none;fillColor=none;spacing=5;spacingTop=-20;whiteSpace=wrap;overflow=hidden;rounded=0;dashed=1;labelBackgroundColor=none;labelBorderColor=none;fontSize=28;" vertex="1" parent="1">
          <mxGeometry x="530" y="436" width="150" height="40" as="geometry" />
        </mxCell>
        <mxCell id="FFQyTOtspE-0GEqabYLA-18" value="可视化工具" style="shape=image;verticalLabelPosition=bottom;labelBackgroundColor=none;verticalAlign=top;aspect=fixed;imageAspect=0;image=https://images.contentstack.io/v3/assets/bltefdd0b53724fa2ce/bltaeb7a6a4e9dc3735/5d07f07ddc3c021053898fa7/logo-kibana-24-color.svg;fontSize=13;fontStyle=1" vertex="1" parent="1">
          <mxGeometry x="1240" y="319" width="62" height="62" as="geometry" />
        </mxCell>
        <mxCell id="FFQyTOtspE-0GEqabYLA-19" value="binlog" style="shape=singleArrow;labelBackgroundColor=none;labelBorderColor=none;fontSize=20;fillColor=#d5e8d4;dashed=1;strokeColor=#82b366;html=1;whiteSpace=wrap;spacingTop=-42;" vertex="1" parent="1">
          <mxGeometry x="270" y="352" width="210" height="40" as="geometry" />
        </mxCell>
        <mxCell id="FFQyTOtspE-0GEqabYLA-20" value="binlog" style="shape=singleArrow;labelBackgroundColor=none;labelBorderColor=none;fontSize=20;fillColor=#d5e8d4;dashed=1;strokeColor=#82b366;html=1;whiteSpace=wrap;spacingTop=-42;" vertex="1" parent="1">
          <mxGeometry x="270" y="430" width="210" height="40" as="geometry" />
        </mxCell>
        <mxCell id="FFQyTOtspE-0GEqabYLA-21" value="&lt;span style=&quot;color: rgb(102, 102, 102); font-family: arial, helvetica, sans-serif; font-size: 16px; font-style: normal; letter-spacing: normal; text-align: left; text-indent: 0px; text-transform: none; word-spacing: 0px; display: inline; float: none;&quot;&gt;数据分析引擎&lt;/span&gt;" style="text;whiteSpace=wrap;html=1;fontSize=16;fontStyle=1;labelBackgroundColor=none;" vertex="1" parent="1">
          <mxGeometry x="1030" y="400" width="110" height="30" as="geometry" />
        </mxCell>
        <mxCell id="FFQyTOtspE-0GEqabYLA-22" value="&lt;span style=&quot;color: rgb(64, 64, 64); font-size: 16px; font-style: normal; letter-spacing: normal; text-indent: 0px; text-transform: none; word-spacing: 0px; display: inline; float: none;&quot;&gt;流式 ETL&lt;/span&gt;" style="text;whiteSpace=wrap;html=1;fontSize=16;fontStyle=1;labelBackgroundColor=none;" vertex="1" parent="1">
          <mxGeometry x="550" y="508" width="90" height="30" as="geometry" />
        </mxCell>
        <mxCell id="FFQyTOtspE-0GEqabYLA-23" value="" style="shape=curlyBracket;whiteSpace=wrap;html=1;rounded=1;flipH=1;labelBackgroundColor=none;labelBorderColor=none;fontSize=16;fillColor=#CCCCCC;rotation=90;" vertex="1" parent="1">
          <mxGeometry x="330" y="470" width="20" height="220" as="geometry" />
        </mxCell>
        <mxCell id="FFQyTOtspE-0GEqabYLA-24" value="" style="shape=curlyBracket;whiteSpace=wrap;html=1;rounded=1;flipH=1;labelBackgroundColor=none;labelBorderColor=none;fontSize=16;fillColor=#CCCCCC;rotation=90;" vertex="1" parent="1">
          <mxGeometry x="595" y="470" width="20" height="220" as="geometry" />
        </mxCell>
        <mxCell id="FFQyTOtspE-0GEqabYLA-25" value="" style="shape=curlyBracket;whiteSpace=wrap;html=1;rounded=1;flipH=1;labelBackgroundColor=none;labelBorderColor=none;fontSize=16;fillColor=#CCCCCC;rotation=90;" vertex="1" parent="1">
          <mxGeometry x="850" y="470" width="20" height="220" as="geometry" />
        </mxCell>
        <mxCell id="FFQyTOtspE-0GEqabYLA-26" value="&lt;span style=&quot;color: rgb(64, 64, 64); font-size: 16px; font-style: normal; letter-spacing: normal; text-indent: 0px; text-transform: none; word-spacing: 0px; display: inline; float: none;&quot;&gt;采集 E&lt;/span&gt;" style="text;whiteSpace=wrap;html=1;fontSize=16;fontStyle=1;labelBackgroundColor=none;" vertex="1" parent="1">
          <mxGeometry x="310" y="590" width="90" height="30" as="geometry" />
        </mxCell>
        <mxCell id="FFQyTOtspE-0GEqabYLA-27" value="&lt;span style=&quot;color: rgb(64, 64, 64); font-size: 16px; font-style: normal; letter-spacing: normal; text-indent: 0px; text-transform: none; word-spacing: 0px; display: inline; float: none;&quot;&gt;计算 T&lt;/span&gt;" style="text;whiteSpace=wrap;html=1;fontSize=16;fontStyle=1;labelBackgroundColor=none;" vertex="1" parent="1">
          <mxGeometry x="573.04" y="590" width="90" height="30" as="geometry" />
        </mxCell>
        <mxCell id="FFQyTOtspE-0GEqabYLA-28" value="&lt;span style=&quot;color: rgb(64, 64, 64); font-size: 16px; font-style: normal; letter-spacing: normal; text-indent: 0px; text-transform: none; word-spacing: 0px; display: inline; float: none;&quot;&gt;传输 L&lt;/span&gt;" style="text;whiteSpace=wrap;html=1;fontSize=16;fontStyle=1;labelBackgroundColor=none;" vertex="1" parent="1">
          <mxGeometry x="830" y="590" width="90" height="30" as="geometry" />
        </mxCell>
        <mxCell id="FFQyTOtspE-0GEqabYLA-29" value="数据中台" style="swimlane;labelBackgroundColor=none;labelBorderColor=none;fontSize=16;fillColor=#dae8fc;html=1;strokeColor=#6c8ebf;" vertex="1" parent="1">
          <mxGeometry x="50" y="150" width="1330" height="510" as="geometry" />
        </mxCell>
        <mxCell id="FFQyTOtspE-0GEqabYLA-33" value="Oracle" style="aspect=fixed;html=1;points=[];align=center;image;fontSize=12;image=img/lib/azure2/databases/SQL_Server.svg;labelBackgroundColor=none;labelBorderColor=none;fillColor=#66B2FF;fontStyle=1" vertex="1" parent="FFQyTOtspE-0GEqabYLA-29">
          <mxGeometry x="30" y="189" width="68" height="68" as="geometry" />
        </mxCell>
        <mxCell id="FFQyTOtspE-0GEqabYLA-31" value="基于流式计算框架，低代码，通过SQL就可以进行数据清洗、分析、聚合，然后数据可视化。" style="shape=callout;whiteSpace=wrap;html=1;perimeter=calloutPerimeter;labelBackgroundColor=none;labelBorderColor=none;fontSize=16;fillColor=#66B2FF;" vertex="1" parent="1">
          <mxGeometry x="980" y="20" width="400" height="120" as="geometry" />
        </mxCell>
        <mxCell id="FFQyTOtspE-0GEqabYLA-4" value="" style="shape=image;verticalLabelPosition=bottom;labelBackgroundColor=default;verticalAlign=top;aspect=fixed;imageAspect=0;image=https://nightlies.apache.org/flink/flink-docs-release-1.13/flink-header-logo.svg;" vertex="1" parent="1">
          <mxGeometry x="490" y="284" width="256.08" height="132" as="geometry" />
        </mxCell>
      </root>
    </mxGraphModel>
  </diagram>
</mxfile>
